{"title":"Revolution Z - Season 1 - Episode 6 - SatRip","uid":7871749,"size":517038300,"categoryP":"video","categoryS":"tv_shows","magnet":"?xt=urn:btih:badef7a6ea91f60317595e413e7151d33943829a&amp;dn=Revolution+Z+-+Season+1+-+Episode+6+-+SatRip&amp;tr=udp%3A%2F%2Ftracker.openbittorrent.com%3A80&amp;tr=udp%3A%2F%2Fopen.demonii.com%3A1337&amp;tr=udp%3A%2F%2Ftracker.coppersurfer.tk%3A6969&amp;tr=udp%3A%2F%2Fexodus.desync.com%3A6969","seeders":1,"leechers":0,"uploader":null,"files":1,"time":1354223676,"description":"Input #0, mov,mp4,m4a,3gp,3g2,mj2, from 'Revolution Z - Season 1 - Episode 6.mp4':\n  Metadata:\n    major_brand     : mp42\n    minor_version   : 0\n    compatible_brands: mp42isomavc1\n    creation_time   : 2012-11-29 20:08:06\n    encoder         : HandBrake 5044svn 2012110601\n  Duration: 00:47:38.50, start: 0.000000, bitrate: 1447 kb/s\n    Stream #0:0(und): Video: h264 (Main) (avc1 / 0x31637661), yuv420p, 720x576 [SAR 16:11 DAR 20:11], 1344 kb/s, 25 fps, 25 tbr, 90k tbn, 180k tbc\n    Metadata:\n      creation_time   : 2012-11-29 20:08:06\n    Stream #0:1(und): Audio: aac (mp4a / 0x6134706D), 48000 Hz, stereo, s16, 97 kb/s\n    Metadata:\n      creation_time   : 2012-11-29 20:08:06","torrent":{"xt":"urn:btih:badef7a6ea91f60317595e413e7151d33943829a","amp;dn":"Revolution+Z+-+Season+1+-+Episode+6+-+SatRip","amp;tr":["udp%3A%2F%2Ftracker.openbittorrent.com%3A80","udp%3A%2F%2Fopen.demonii.com%3A1337","udp%3A%2F%2Ftracker.coppersurfer.tk%3A6969","udp%3A%2F%2Fexodus.desync.com%3A6969"],"infoHash":"badef7a6ea91f60317595e413e7151d33943829a","infoHashBuffer":{"type":"Buffer","data":[186,222,247,166,234,145,246,3,23,89,94,65,62,113,81,211,57,67,130,154]},"announce":[],"urlList":[]}}